<svg id='email' height="100%" style="fill-rule:evenodd;clip-rule:evenodd;stroke-linejoin:round;stroke-miterlimit:2;" version="1.1" viewBox="0 0 32 32" width="100%" xml:space="preserve" xmlns="http://www.w3.org/2000/svg" xmlns:serif="http://www.serif.com/" xmlns:xlink="http://www.w3.org/1999/xlink"><path d="M16.684,19.732c-0.383,0.353 -0.973,0.353 -1.356,-0c0,-0 -2.571,-2.372 -2.571,-2.372l-9.049,8.347c0.4,0.191 0.841,0.293 1.292,0.293l22.012,-0c0.452,-0 0.893,-0.102 1.292,-0.293l-9.049,-8.347l-2.571,2.372Zm-14.293,-12.212c-0.254,0.447 -0.391,0.957 -0.391,1.48c-0,3.463 -0,10.537 -0,14c-0,0.451 0.102,0.892 0.293,1.292l9.036,-8.335l-8.938,-8.437Zm27.329,0.188l-8.99,8.292l8.99,8.292c0.191,-0.4 0.292,-0.841 0.292,-1.292l0,-14c0,-0.451 -0.101,-0.892 -0.292,-1.292Zm-25.809,-1.503l12.103,11.424l12.29,-11.336c-0.399,-0.191 -0.84,-0.293 -1.292,-0.293l-22.012,0c-0.376,0 -0.745,0.071 -1.089,0.205Z"/></svg>