 <svg viewBox="0 0 20 20" height="20" width="20" xmlns="http://www.w3.org/2000/svg" id="instagram">
                        <g transform="translate(15.354 3.707)" data-name="Group 64" id="Group_64">
                            <g data-name="Group 63" id="Group_63">
                                <path fill="#00" transform="translate(-392.401 -94.739)"
                                    d="M392.871,94.739a.47.47,0,1,0,.47.47A.47.47,0,0,0,392.871,94.739Z"
                                    data-name="Path 5" id="Path_5"></path>
                            </g>
                        </g>
                        <g transform="translate(5.837 5.837)" data-name="Group 66" id="Group_66">
                            <g data-name="Group 65" id="Group_65">
                                <path fill="#000" transform="translate(-145.804 -145.804)"
                                    d="M149.967,145.8a4.163,4.163,0,1,0,4.163,4.163A4.168,4.168,0,0,0,149.967,145.8Z"
                                    data-name="Path 6" id="Path_6"></path>
                            </g>
                        </g>
                        <g data-name="Group 68" id="Group_68">
                            <g data-name="Group 67" id="Group_67">
                                <path fill="#000"
                                    d="M14.517,0H5.483A5.489,5.489,0,0,0,0,5.483v9.035A5.489,5.489,0,0,0,5.483,20h9.035A5.489,5.489,0,0,0,20,14.517V5.483A5.489,5.489,0,0,0,14.517,0ZM10,15.486A5.486,5.486,0,1,1,15.486,10,5.492,5.492,0,0,1,10,15.486Zm5.814-9.633A1.667,1.667,0,1,1,17.48,4.186,1.669,1.669,0,0,1,15.814,5.853Z"
                                    data-name="Path 7" id="Path_7"></path>
                            </g>
                        </g>
                    </svg>